<svg width="162" height="43" viewBox="0 0 162 43" fill="none" xmlns="http://www.w3.org/2000/svg">
<path d="M8.73985 32.8242L13.2047 8.0918C13.2281 7.99805 13.2867 7.95117 13.3805 7.95117H18.6012C18.6949 7.95117 18.7535 7.99805 18.777 8.0918L23.066 32.8242C23.0777 32.9414 23.0309 33 22.9254 33H18.9352C18.818 33 18.7535 32.9414 18.7418 32.8242L18.3551 30.1875H13.4508L13.0641 32.8242C13.0523 32.9414 12.9938 33 12.8883 33H8.88047C8.78672 33 8.73985 32.9414 8.73985 32.8242ZM15.7887 16.2305L14.1715 26.3379H17.6344L16.1578 16.2305L15.9469 14.8945L15.7887 16.2305ZM33.1348 33H29.0566C28.9629 33 28.916 32.9414 28.916 32.8242L28.9863 8.0918C28.9863 7.99805 29.0332 7.95117 29.127 7.95117H36.4043C37.7051 7.95117 38.9004 8.26758 39.9902 8.90039C41.0801 9.5332 41.9473 10.3828 42.5918 11.4492C43.248 12.5156 43.5762 13.7227 43.5762 15.0703C43.5762 15.9492 43.4414 16.7461 43.1719 17.4609C42.9023 18.1758 42.5859 18.7793 42.2227 19.2715C41.8711 19.7637 41.5488 20.127 41.2559 20.3613C42.5566 21.8027 43.207 23.4961 43.207 25.4414L43.2422 32.8242C43.2422 32.9414 43.1836 33 43.0664 33H38.9883C38.8945 33 38.8477 32.9648 38.8477 32.8945V25.4414C38.8477 24.5742 38.543 23.8242 37.9336 23.1914C37.3242 22.5586 36.5742 22.2422 35.6836 22.2422H33.3105L33.2754 32.8242C33.2754 32.9414 33.2285 33 33.1348 33ZM36.4043 12.2578H33.3105V17.918H36.4043C37.1426 17.918 37.7988 17.6426 38.373 17.0918C38.959 16.541 39.252 15.8672 39.252 15.0703C39.252 14.3086 38.9707 13.6523 38.4082 13.1016C37.8457 12.5391 37.1777 12.2578 36.4043 12.2578ZM56.5102 33.3516C55.2094 33.3516 54.0199 33.0234 52.9418 32.3672C51.8754 31.7109 51.0258 30.832 50.393 29.7305C49.7719 28.6172 49.4613 27.3809 49.4613 26.0215L49.4965 14.7891C49.4965 13.4531 49.8012 12.2461 50.4105 11.168C51.0199 10.0781 51.8578 9.20508 52.9242 8.54883C54.0023 7.88086 55.1977 7.54688 56.5102 7.54688C57.8461 7.54688 59.0355 7.86914 60.0785 8.51367C61.1332 9.1582 61.9711 10.0312 62.5922 11.1328C63.225 12.2227 63.5414 13.4414 63.5414 14.7891V16.4414C63.5414 16.5352 63.4945 16.582 63.4008 16.582H59.3578C59.2641 16.582 59.2172 16.5352 59.2172 16.4414V14.7891C59.2172 13.9922 58.9594 13.3066 58.4438 12.7324C57.9281 12.1582 57.2836 11.8711 56.5102 11.8711C55.6547 11.8711 54.9984 12.1641 54.5414 12.75C54.0844 13.3359 53.8559 14.0156 53.8559 14.7891V26.0215C53.8559 26.9004 54.1137 27.6211 54.6293 28.1836C55.1449 28.7344 55.7719 29.0098 56.5102 29.0098C57.2836 29.0098 57.9281 28.7051 58.4438 28.0957C58.9594 27.4746 59.2172 26.7832 59.2172 26.0215V24.3516C59.2172 24.2578 59.2641 24.2109 59.3578 24.2109H63.4359C63.5297 24.2109 63.5766 24.2578 63.5766 24.3516V26.0215C63.5766 27.3691 63.2602 28.5996 62.6273 29.7129C61.9828 30.8145 61.1332 31.6992 60.0785 32.3672C59.0238 33.0234 57.8344 33.3516 56.5102 33.3516ZM74.0145 33H69.9363C69.8426 33 69.7957 32.9414 69.7957 32.8242L69.8309 8.0918C69.8309 7.99805 69.8895 7.95117 70.0066 7.95117H74.0145C74.1316 7.95117 74.1902 7.99805 74.1902 8.0918L74.1551 17.8828H79.5516V8.0918C79.5516 7.99805 79.5984 7.95117 79.6922 7.95117H83.7C83.8172 7.95117 83.8758 7.99805 83.8758 8.0918L83.9461 32.8242C83.9461 32.9414 83.8875 33 83.7703 33H79.7273C79.6102 33 79.5516 32.9414 79.5516 32.8242V22.2422H74.1551V32.8242C74.1551 32.9414 74.1082 33 74.0145 33ZM129.006 33H124.646C124.541 33 124.482 32.9414 124.471 32.8242L119.496 8.0918C119.473 7.99805 119.52 7.95117 119.637 7.95117H123.715C123.809 7.95117 123.867 7.99805 123.891 8.0918L126.844 24.5801L129.727 8.0918C129.75 7.99805 129.809 7.95117 129.902 7.95117H133.928C134.057 7.95117 134.104 7.99805 134.068 8.0918L129.182 32.8242C129.17 32.9414 129.111 33 129.006 33ZM151.555 33H139.918C139.825 33 139.778 32.9414 139.778 32.8242L139.813 8.0918C139.813 7.99805 139.86 7.95117 139.954 7.95117H151.52C151.614 7.95117 151.661 8.00977 151.661 8.12695V12.1523C151.661 12.2461 151.614 12.293 151.52 12.293H144.137V17.918H151.52C151.614 17.918 151.661 17.9648 151.661 18.0586L151.696 22.1367C151.696 22.2305 151.649 22.2773 151.555 22.2773H144.137V28.5703H151.555C151.649 28.5703 151.696 28.6289 151.696 28.7461V32.8594C151.696 32.9531 151.649 33 151.555 33Z" fill="#37B7C4"/>
<path d="M89.2688 32.8242L93.7336 8.0918C93.757 7.99805 93.8156 7.95117 93.9094 7.95117H99.1301C99.2238 7.95117 99.2824 7.99805 99.3059 8.0918L103.595 32.8242C103.607 32.9414 103.56 33 103.454 33H99.4641C99.3469 33 99.2824 32.9414 99.2707 32.8242L98.884 30.1875H93.9797L93.593 32.8242C93.5813 32.9414 93.5227 33 93.4172 33H89.4094C89.3156 33 89.2688 32.9414 89.2688 32.8242ZM96.3176 16.2305L94.7004 26.3379H98.1633L96.6867 16.2305L96.4758 14.8945L96.3176 16.2305ZM113.699 33H109.621C109.504 33 109.445 32.9414 109.445 32.8242L109.48 8.0918C109.48 7.99805 109.527 7.95117 109.621 7.95117H113.664C113.757 7.95117 113.804 7.99805 113.804 8.0918L113.839 32.8242C113.839 32.9414 113.793 33 113.699 33Z" fill="#F54848"/>
</svg>
