<svg width="162" height="44" viewBox="0 0 162 44" fill="none" xmlns="http://www.w3.org/2000/svg">
<path d="M8.73985 33.2441L13.2047 8.51172C13.2281 8.41797 13.2867 8.37109 13.3805 8.37109H18.6012C18.6949 8.37109 18.7535 8.41797 18.777 8.51172L23.066 33.2441C23.0777 33.3613 23.0309 33.4199 22.9254 33.4199H18.9352C18.818 33.4199 18.7535 33.3613 18.7418 33.2441L18.3551 30.6074H13.4508L13.0641 33.2441C13.0523 33.3613 12.9938 33.4199 12.8883 33.4199H8.88047C8.78672 33.4199 8.73985 33.3613 8.73985 33.2441ZM15.7887 16.6504L14.1715 26.7578H17.6344L16.1578 16.6504L15.9469 15.3145L15.7887 16.6504ZM33.1348 33.4199H29.0566C28.9629 33.4199 28.916 33.3613 28.916 33.2441L28.9863 8.51172C28.9863 8.41797 29.0332 8.37109 29.127 8.37109H36.4043C37.7051 8.37109 38.9004 8.6875 39.9902 9.32031C41.0801 9.95312 41.9473 10.8027 42.5918 11.8691C43.248 12.9355 43.5762 14.1426 43.5762 15.4902C43.5762 16.3691 43.4414 17.166 43.1719 17.8809C42.9023 18.5957 42.5859 19.1992 42.2227 19.6914C41.8711 20.1836 41.5488 20.5469 41.2559 20.7812C42.5566 22.2227 43.207 23.916 43.207 25.8613L43.2422 33.2441C43.2422 33.3613 43.1836 33.4199 43.0664 33.4199H38.9883C38.8945 33.4199 38.8477 33.3848 38.8477 33.3145V25.8613C38.8477 24.9941 38.543 24.2441 37.9336 23.6113C37.3242 22.9785 36.5742 22.6621 35.6836 22.6621H33.3105L33.2754 33.2441C33.2754 33.3613 33.2285 33.4199 33.1348 33.4199ZM36.4043 12.6777H33.3105V18.3379H36.4043C37.1426 18.3379 37.7988 18.0625 38.373 17.5117C38.959 16.9609 39.252 16.2871 39.252 15.4902C39.252 14.7285 38.9707 14.0723 38.4082 13.5215C37.8457 12.959 37.1777 12.6777 36.4043 12.6777ZM56.5102 33.7715C55.2094 33.7715 54.0199 33.4434 52.9418 32.7871C51.8754 32.1309 51.0258 31.252 50.393 30.1504C49.7719 29.0371 49.4613 27.8008 49.4613 26.4414L49.4965 15.209C49.4965 13.873 49.8012 12.666 50.4105 11.5879C51.0199 10.498 51.8578 9.625 52.9242 8.96875C54.0023 8.30078 55.1977 7.9668 56.5102 7.9668C57.8461 7.9668 59.0355 8.28906 60.0785 8.93359C61.1332 9.57813 61.9711 10.4512 62.5922 11.5527C63.225 12.6426 63.5414 13.8613 63.5414 15.209V16.8613C63.5414 16.9551 63.4945 17.002 63.4008 17.002H59.3578C59.2641 17.002 59.2172 16.9551 59.2172 16.8613V15.209C59.2172 14.4121 58.9594 13.7266 58.4438 13.1523C57.9281 12.5781 57.2836 12.291 56.5102 12.291C55.6547 12.291 54.9984 12.584 54.5414 13.1699C54.0844 13.7559 53.8559 14.4355 53.8559 15.209V26.4414C53.8559 27.3203 54.1137 28.041 54.6293 28.6035C55.1449 29.1543 55.7719 29.4297 56.5102 29.4297C57.2836 29.4297 57.9281 29.125 58.4438 28.5156C58.9594 27.8945 59.2172 27.2031 59.2172 26.4414V24.7715C59.2172 24.6777 59.2641 24.6309 59.3578 24.6309H63.4359C63.5297 24.6309 63.5766 24.6777 63.5766 24.7715V26.4414C63.5766 27.7891 63.2602 29.0195 62.6273 30.1328C61.9828 31.2344 61.1332 32.1191 60.0785 32.7871C59.0238 33.4434 57.8344 33.7715 56.5102 33.7715ZM74.0145 33.4199H69.9363C69.8426 33.4199 69.7957 33.3613 69.7957 33.2441L69.8309 8.51172C69.8309 8.41797 69.8895 8.37109 70.0066 8.37109H74.0145C74.1316 8.37109 74.1902 8.41797 74.1902 8.51172L74.1551 18.3027H79.5516V8.51172C79.5516 8.41797 79.5984 8.37109 79.6922 8.37109H83.7C83.8172 8.37109 83.8758 8.41797 83.8758 8.51172L83.9461 33.2441C83.9461 33.3613 83.8875 33.4199 83.7703 33.4199H79.7273C79.6102 33.4199 79.5516 33.3613 79.5516 33.2441V22.6621H74.1551V33.2441C74.1551 33.3613 74.1082 33.4199 74.0145 33.4199ZM129.006 33.4199H124.646C124.541 33.4199 124.482 33.3613 124.471 33.2441L119.496 8.51172C119.473 8.41797 119.52 8.37109 119.637 8.37109H123.715C123.809 8.37109 123.867 8.41797 123.891 8.51172L126.844 25L129.727 8.51172C129.75 8.41797 129.809 8.37109 129.902 8.37109H133.928C134.057 8.37109 134.104 8.41797 134.068 8.51172L129.182 33.2441C129.17 33.3613 129.111 33.4199 129.006 33.4199ZM151.555 33.4199H139.918C139.825 33.4199 139.778 33.3613 139.778 33.2441L139.813 8.51172C139.813 8.41797 139.86 8.37109 139.954 8.37109H151.52C151.614 8.37109 151.661 8.42969 151.661 8.54688V12.5723C151.661 12.666 151.614 12.7129 151.52 12.7129H144.137V18.3379H151.52C151.614 18.3379 151.661 18.3848 151.661 18.4785L151.696 22.5566C151.696 22.6504 151.649 22.6973 151.555 22.6973H144.137V28.9902H151.555C151.649 28.9902 151.696 29.0488 151.696 29.166V33.2793C151.696 33.373 151.649 33.4199 151.555 33.4199Z" fill="white"/>
<path d="M89.2688 33.2441L93.7336 8.51172C93.757 8.41797 93.8156 8.37109 93.9094 8.37109H99.1301C99.2238 8.37109 99.2824 8.41797 99.3059 8.51172L103.595 33.2441C103.607 33.3613 103.56 33.4199 103.454 33.4199H99.4641C99.3469 33.4199 99.2824 33.3613 99.2707 33.2441L98.884 30.6074H93.9797L93.593 33.2441C93.5813 33.3613 93.5227 33.4199 93.4172 33.4199H89.4094C89.3156 33.4199 89.2688 33.3613 89.2688 33.2441ZM96.3176 16.6504L94.7004 26.7578H98.1633L96.6867 16.6504L96.4758 15.3145L96.3176 16.6504ZM113.699 33.4199H109.621C109.504 33.4199 109.445 33.3613 109.445 33.2441L109.48 8.51172C109.48 8.41797 109.527 8.37109 109.621 8.37109H113.664C113.757 8.37109 113.804 8.41797 113.804 8.51172L113.839 33.2441C113.839 33.3613 113.793 33.4199 113.699 33.4199Z" fill="#F54848"/>
</svg>
