<svg width="100" height="90" viewBox="0 0 100 90" fill="none" xmlns="http://www.w3.org/2000/svg">
<g clip-path="url(#clip0_260_2712)">
<path fill-rule="evenodd" clip-rule="evenodd" d="M40.1358 27.9392H38.05C36.4245 27.9392 35.1067 29.257 35.1067 30.8825V61.2965C35.1067 62.922 36.4245 64.2398 38.05 64.2398H60.6153C62.2408 64.2398 63.5585 62.922 63.5585 61.2965V55.6552H65.5207V61.2965C65.5207 64.0057 63.3245 66.202 60.6153 66.202H38.05C35.3408 66.202 33.1445 64.0057 33.1445 61.2965V30.8825C33.1445 28.1733 35.3408 25.977 38.05 25.977H40.1358C40.5715 24.2844 42.108 23.0337 43.9366 23.0337H54.7287C56.5573 23.0337 58.0938 24.2844 58.5294 25.977H60.6153C63.3245 25.977 65.5207 28.1733 65.5207 30.8825V45.5989H63.5585V30.8825C63.5585 29.257 62.2408 27.9392 60.6153 27.9392H58.5294C58.0938 29.6318 56.5573 30.8825 54.7287 30.8825H43.9366C42.108 30.8825 40.5715 29.6318 40.1358 27.9392ZM41.9744 26.9581C41.9744 25.8744 42.8529 24.996 43.9366 24.996H54.7287C55.8123 24.996 56.6909 25.8744 56.6909 26.9581C56.6909 28.0418 55.8123 28.9203 54.7287 28.9203H43.9366C42.8529 28.9203 41.9744 28.0418 41.9744 26.9581Z" fill="#F34848"/>
<path fill-rule="evenodd" clip-rule="evenodd" d="M43.9365 25.9771C43.3946 25.9771 42.9553 26.4162 42.9553 26.9581C42.9553 27.5 43.3946 27.9392 43.9365 27.9392H54.7286C55.2704 27.9392 55.7097 27.5 55.7097 26.9581C55.7097 26.4162 55.2704 25.9771 54.7286 25.9771H43.9365ZM38.0499 49.5233C37.5081 49.5233 37.0688 49.9626 37.0688 50.5044C37.0688 51.0463 37.5081 51.4855 38.0499 51.4855H53.7475C54.2894 51.4855 54.7286 51.0463 54.7286 50.5044C54.7286 49.9626 54.2894 49.5233 53.7475 49.5233H38.0499ZM37.0688 55.4099C37.0688 54.8681 37.5081 54.4288 38.0499 54.4288H47.8609C48.4028 54.4288 48.842 54.8681 48.842 55.4099C48.842 55.9518 48.4028 56.391 47.8609 56.391H38.0499C37.5081 56.391 37.0688 55.9518 37.0688 55.4099ZM38.0499 59.3344C37.5081 59.3344 37.0688 59.7735 37.0688 60.3154C37.0688 60.8573 37.5081 61.2965 38.0499 61.2965H43.9365C44.4784 61.2965 44.9176 60.8573 44.9176 60.3154C44.9176 59.7735 44.4784 59.3344 43.9365 59.3344H38.0499Z" fill="#37B7C4"/>
<path fill-rule="evenodd" clip-rule="evenodd" d="M49.8234 33.8257C48.7397 33.8257 47.8612 34.7042 47.8612 35.7879C47.8612 36.8716 48.7397 37.7501 49.8234 37.7501C50.9071 37.7501 51.7856 36.8716 51.7856 35.7879C51.7856 34.7042 50.9071 33.8257 49.8234 33.8257ZM45.899 35.7879C45.899 33.6205 47.656 31.8635 49.8234 31.8635C51.9908 31.8635 53.7478 33.6205 53.7478 35.7879C53.7478 37.1851 53.0176 38.4118 51.918 39.1071C54.4461 40.0494 56.2005 42.6491 56.2005 45.5989C56.2005 46.1407 55.7612 46.5799 55.2194 46.5799H44.4274C43.8856 46.5799 43.4463 46.1407 43.4463 45.5989C43.4463 42.6491 45.2007 40.0494 47.7288 39.1071C46.6292 38.4118 45.899 37.1851 45.899 35.7879ZM45.4956 44.6178H54.1512C53.7364 42.3268 51.8975 40.6934 49.8234 40.6934C47.7493 40.6934 45.9104 42.3268 45.4956 44.6178Z" fill="#37B7C4"/>
<path fill-rule="evenodd" clip-rule="evenodd" d="M62.2903 47.2737C61.9072 46.8905 61.286 46.8905 60.9029 47.2737L51.1905 56.9861C51.0439 57.1327 50.9475 57.322 50.9151 57.5268L50.3948 60.8221C50.3459 61.1321 50.4482 61.4469 50.6702 61.6688C50.8921 61.8908 51.2069 61.9931 51.517 61.9442L54.8122 61.4239C55.017 61.3916 55.2063 61.2951 55.3529 61.1485L62.0453 54.4561C62.1058 54.4179 62.1629 54.3725 62.2155 54.3199C62.2681 54.2673 62.3135 54.2101 62.3517 54.1497L65.0653 51.4362C65.4484 51.053 65.4484 50.4318 65.0653 50.0486L62.2903 47.2737ZM61.5048 52.2217L62.984 50.7424L61.5966 49.3549L60.1173 50.8342L61.5048 52.2217ZM58.7298 52.2217L52.8035 58.148L52.5434 59.7956L54.191 59.5354L60.1173 53.6092L58.7298 52.2217Z" fill="#37B7C4"/>
</g>
<defs>
<clipPath id="clip0_260_2712">
<rect width="100" height="90" fill="white"/>
</clipPath>
</defs>
</svg>
