<svg width="100" height="90" viewBox="0 0 100 90" fill="none" xmlns="http://www.w3.org/2000/svg">
<path d="M29.5546 49.6431L49.0328 36.0084C49.3956 35.7543 49.8778 35.7516 50.2436 36.0014L70.1776 49.6149C70.7945 50.0362 70.7969 50.9454 70.1821 51.3698L49.7313 65.4906C49.356 65.7498 48.8573 65.741 48.4913 65.4689L29.5299 51.3693C28.9472 50.9361 28.9598 50.0595 29.5546 49.6431Z" fill="white"/>
<path fill-rule="evenodd" clip-rule="evenodd" d="M48.4224 35.1373C49.148 34.6293 50.1124 34.6237 50.8439 35.1233L70.778 48.7368C72.0118 49.5794 72.0165 51.3978 70.7869 52.2468L50.3362 66.3676C49.5855 66.8858 48.5882 66.8684 47.8561 66.3241L28.8947 52.2245C27.7294 51.358 27.7545 49.6047 28.9442 48.772L48.4224 35.1373ZM69.5773 50.4949L49.6433 36.8814L30.1651 50.5161L49.1265 64.6156L69.5773 50.4949Z" fill="#37B7C4"/>
<path d="M29.5546 43.7893L49.0328 30.1546C49.3956 29.9006 49.8778 29.8978 50.2436 30.1476L70.1776 43.761C70.7945 44.1824 70.7969 45.0916 70.1821 45.5161L49.7313 59.6369C49.356 59.896 48.8573 59.8872 48.4913 59.6151L29.5299 45.5156C28.9472 45.0823 28.9598 44.2057 29.5546 43.7893Z" fill="white"/>
<path fill-rule="evenodd" clip-rule="evenodd" d="M48.4224 29.2808C49.148 28.7729 50.1124 28.7673 50.8439 29.2669L70.778 42.8803C72.0118 43.723 72.0165 45.5414 70.7869 46.3904L50.3362 60.5111C49.5855 61.0294 48.5882 61.0119 47.8561 60.4676L28.8947 46.3681C27.7294 45.5015 27.7545 43.7483 28.9442 42.9156L48.4224 29.2808ZM69.5773 44.6384L49.6433 31.025L30.1651 44.6597L49.1265 58.7592L69.5773 44.6384Z" fill="#37B7C4"/>
<path d="M29.5546 37.9329L49.0328 24.2981C49.3956 24.0442 49.8778 24.0413 50.2436 24.2911L70.1776 37.9046C70.7945 38.3259 70.7969 39.2351 70.1821 39.6597L49.7313 53.7804C49.356 54.0396 48.8573 54.0308 48.4913 53.7586L29.5299 39.6592C28.9472 39.2259 28.9598 38.3492 29.5546 37.9329Z" fill="white"/>
<path fill-rule="evenodd" clip-rule="evenodd" d="M48.4224 23.4271C49.148 22.9191 50.1124 22.9136 50.8439 23.4131L70.778 37.0266C72.0118 37.8693 72.0165 39.6876 70.7869 40.5366L50.3362 54.6574C49.5855 55.1757 48.5882 55.1582 47.8561 54.6139L28.8947 40.5144C27.7294 39.6478 27.7545 37.8946 28.9442 37.0618L48.4224 23.4271ZM69.5773 38.7847L49.6433 25.1712L30.1651 38.8059L49.1265 52.9055L69.5773 38.7847Z" fill="#37B7C4"/>
<path fill-rule="evenodd" clip-rule="evenodd" d="M43.1676 31.7163C41.4837 32.4166 40.1962 34.2738 40.9538 36.0956C41.4705 37.3378 42.6693 37.9173 43.9136 37.9383C43.4338 39.547 43.7205 41.3564 44.8428 42.7715C45.1946 43.2151 45.8321 43.3058 46.2935 42.9778L53.9775 37.5161C54.2154 37.3469 54.3735 37.0873 54.4146 36.7982C54.4557 36.5091 54.3762 36.2158 54.1948 35.987C53.2102 34.7454 51.5832 34.1802 50.0726 34.0869C49.4108 34.0461 48.7206 34.0922 48.0546 34.2348C48.0433 33.9051 47.9732 33.569 47.8339 33.2342C47.0762 31.4124 44.8514 31.0159 43.1676 31.7163ZM42.9196 35.278C42.7742 34.9286 42.9548 34.1105 43.9851 33.682C45.0154 33.2535 45.7228 33.7022 45.8682 34.0517C46.0135 34.4012 45.8329 35.2193 44.8027 35.6478C43.7724 36.0762 43.0649 35.6275 42.9196 35.278ZM46.0141 40.5644L51.5849 36.6047C51.1247 36.3904 50.5635 36.2502 49.9415 36.2119C48.7886 36.1407 47.6892 36.4386 47.0288 36.9623C45.921 37.8407 45.5522 39.3059 46.0141 40.5644Z" fill="#F34848"/>
<path d="M58.2334 39.1146C58.7137 38.7756 58.8282 38.1114 58.4892 37.6311C58.1502 37.1508 57.4859 37.0363 57.0056 37.3754L47.9575 43.7623C47.4772 44.1013 47.3627 44.7655 47.7018 45.2458C48.0408 45.7261 48.705 45.8406 49.1853 45.5016L58.2334 39.1146Z" fill="#F34848"/>
<path d="M60.8945 41.776C61.3748 41.437 61.4893 40.7728 61.1503 40.2925C60.8112 39.8122 60.1471 39.6977 59.6668 40.0367L50.6187 46.4236C50.1384 46.7626 50.0239 47.4268 50.3628 47.9071C50.7019 48.3874 51.3661 48.5019 51.8464 48.1629L60.8945 41.776Z" fill="#F34848"/>
</svg>
