<svg width="100" height="90" viewBox="0 0 100 90" fill="none" xmlns="http://www.w3.org/2000/svg">
<g clip-path="url(#clip0_260_2723)">
<mask id="mask0_260_2723" style="mask-type:luminance" maskUnits="userSpaceOnUse" x="24" y="19" width="52" height="52">
<path d="M67.3344 19.498H31.9357C27.6012 19.498 24.0874 23.0118 24.0874 27.3463V62.7451C24.0874 67.0795 27.6012 70.5933 31.9357 70.5933H67.3344C71.6689 70.5933 75.1827 67.0795 75.1827 62.7451V27.3463C75.1827 23.0118 71.6689 19.498 67.3344 19.498Z" fill="white"/>
</mask>
<g mask="url(#mask0_260_2723)">
<path fill-rule="evenodd" clip-rule="evenodd" d="M63.4727 38.0391H67.7306V63.5867H63.4727V38.0391ZM61.3437 38.0391C61.3437 36.8633 62.2969 35.9102 63.4727 35.9102H67.7306C68.9065 35.9102 69.8596 36.8633 69.8596 38.0391V63.5867C69.8596 64.7626 68.9065 65.7157 67.7306 65.7157H63.4727C62.2969 65.7157 61.3437 64.7626 61.3437 63.5867V38.0391ZM42.183 42.297H46.4409V63.5867H42.183V42.297ZM40.0541 42.297C40.0541 41.1213 41.0072 40.1681 42.183 40.1681H46.4409C47.6168 40.1681 48.5699 41.1213 48.5699 42.297V63.5867C48.5699 64.7626 47.6168 65.7157 46.4409 65.7157H42.183C41.0072 65.7157 40.0541 64.7626 40.0541 63.5867V42.297ZM31.5382 50.8129H35.7961V63.5867H31.5382V50.8129ZM29.4092 50.8129C29.4092 49.6372 30.3624 48.684 31.5382 48.684H35.7961C36.9719 48.684 37.9251 49.6372 37.9251 50.8129V63.5867C37.9251 64.7626 36.9719 65.7157 35.7961 65.7157H31.5382C30.3624 65.7157 29.4092 64.7626 29.4092 63.5867V50.8129ZM57.0858 46.555H52.8279V63.5867H57.0858V46.555ZM52.8279 44.426C51.652 44.426 50.6989 45.3792 50.6989 46.555V63.5867C50.6989 64.7626 51.652 65.7157 52.8279 65.7157H57.0858C58.2616 65.7157 59.2148 64.7626 59.2148 63.5867V46.555C59.2148 45.3792 58.2616 44.426 57.0858 44.426H52.8279Z" fill="#37B7C4"/>
<path fill-rule="evenodd" clip-rule="evenodd" d="M64.2074 23.9686C63.6209 23.9284 63.1128 24.3713 63.0727 24.9578C63.0325 25.5443 63.4754 26.0524 64.0619 26.0925L65.9544 26.2222L55.2606 34.7782C54.9613 35.0177 54.5563 35.0777 54.2003 34.9353L45.8341 31.5888C44.7865 31.1698 43.5955 31.3347 42.7011 32.0227L29.8247 41.9276C29.3587 42.286 29.2715 42.9544 29.63 43.4204C29.9884 43.8863 30.6568 43.9735 31.1228 43.6151L43.9991 33.7101C44.2973 33.4809 44.6943 33.4258 45.0435 33.5655L53.4096 36.912C54.4775 37.3391 55.6926 37.159 56.5906 36.4405L67.4055 27.7878L67.2695 29.7722C67.2294 30.3587 67.6722 30.8668 68.2588 30.907C68.8453 30.9471 69.3533 30.5043 69.3936 29.9177L69.7023 25.4121C69.7425 24.8255 69.2996 24.3175 68.713 24.2773L64.2074 23.9686Z" fill="#F34848"/>
</g>
</g>
<defs>
<clipPath id="clip0_260_2723">
<rect width="100" height="90" fill="white"/>
</clipPath>
</defs>
</svg>
