<svg width="100" height="90" viewBox="0 0 100 90" fill="none" xmlns="http://www.w3.org/2000/svg">
<g clip-path="url(#clip0_260_2736)">
<path fill-rule="evenodd" clip-rule="evenodd" d="M66.3545 21.6631C65.9387 21.2474 65.2648 21.2474 64.849 21.6631C64.4333 22.0788 64.4333 22.7528 64.849 23.1685L66.2253 24.5448H35.2639C34.676 24.5448 34.1995 25.0213 34.1995 25.6092C34.1995 26.1972 34.676 26.6737 35.2639 26.6737H66.2253L64.849 28.05C64.4333 28.4657 64.4333 29.1397 64.849 29.5554C65.2648 29.9711 65.9387 29.9711 66.3545 29.5554L69.5479 26.3619C69.9636 25.9462 69.9636 25.2723 69.5479 24.8565L66.3545 21.6631ZM29.4093 62.6914V31.73C29.4093 31.1421 29.8859 30.6656 30.4738 30.6656C31.0617 30.6656 31.5382 31.1421 31.5382 31.73V62.6914L32.9145 61.3151C33.3302 60.8994 34.0042 60.8994 34.4199 61.3151C34.8356 61.7308 34.8356 62.4048 34.4199 62.8205L31.2265 66.014C30.8108 66.4297 30.1368 66.4297 29.7211 66.014L26.5276 62.8205C26.1119 62.4048 26.1119 61.7308 26.5276 61.3151C26.9433 60.8994 27.6173 60.8994 28.033 61.3151L29.4093 62.6914Z" fill="#F34848"/>
<path fill-rule="evenodd" clip-rule="evenodd" d="M44.8444 39.4485C46.6081 39.4485 48.0378 38.0187 48.0378 36.255C48.0378 34.4913 46.6081 33.0615 44.8444 33.0615C43.0807 33.0615 41.651 34.4913 41.651 36.255C41.651 38.0187 43.0807 39.4485 44.8444 39.4485ZM38.9897 46.3676C38.9897 42.8402 41.611 39.9807 44.8444 39.9807C48.0778 39.9807 50.6991 42.8402 50.6991 46.3676H38.9897ZM65.6019 36.255C65.6019 38.0187 64.1722 39.4485 62.4084 39.4485C60.6447 39.4485 59.215 38.0187 59.215 36.255C59.215 34.4913 60.6447 33.0615 62.4084 33.0615C64.1722 33.0615 65.6019 34.4913 65.6019 36.255ZM56.5538 46.3676C56.5538 42.8402 59.175 39.9807 62.4084 39.9807C65.6419 39.9807 68.2631 42.8402 68.2631 46.3676H56.5538ZM65.6019 55.1496C65.6019 56.9133 64.1722 58.3431 62.4084 58.3431C60.6447 58.3431 59.215 56.9133 59.215 55.1496C59.215 53.3859 60.6447 51.9561 62.4084 51.9561C64.1722 51.9561 65.6019 53.3859 65.6019 55.1496ZM56.5538 65.2622C56.5538 61.7348 59.175 58.8753 62.4084 58.8753C65.6419 58.8753 68.2631 61.7348 68.2631 65.2622H56.5538ZM48.0378 55.1496C48.0378 56.9133 46.6081 58.3431 44.8444 58.3431C43.0807 58.3431 41.651 56.9133 41.651 55.1496C41.651 53.3859 43.0807 51.9561 44.8444 51.9561C46.6081 51.9561 48.0378 53.3859 48.0378 55.1496ZM38.9897 65.2622C38.9897 61.7348 41.611 58.8753 44.8444 58.8753C48.0778 58.8753 50.6991 61.7348 50.6991 65.2622H38.9897Z" fill="white"/>
<path fill-rule="evenodd" clip-rule="evenodd" d="M42.7164 36.256C42.7164 35.0802 43.6696 34.127 44.8454 34.127C46.0212 34.127 46.9744 35.0802 46.9744 36.256C46.9744 37.4318 46.0212 38.385 44.8454 38.385C43.6696 38.385 42.7164 37.4318 42.7164 36.256ZM44.8454 31.998C42.4938 31.998 40.5874 33.9044 40.5874 36.256C40.5874 37.5658 41.1789 38.7375 42.1092 39.5185C39.6177 40.6724 37.9263 43.3518 37.9263 46.3686C37.9263 46.9565 38.4028 47.4331 38.9907 47.4331H50.7001C51.2879 47.4331 51.7646 46.9565 51.7646 46.3686C51.7646 43.3518 50.0732 40.6724 47.5816 39.5185C48.512 38.7375 49.1033 37.5658 49.1033 36.256C49.1033 33.9044 47.197 31.998 44.8454 31.998ZM44.8454 41.0461C47.0958 41.0461 49.091 42.8184 49.541 45.3041H40.1498C40.5998 42.8184 42.595 41.0461 44.8454 41.0461ZM62.4094 34.127C61.2336 34.127 60.2804 35.0802 60.2804 36.256C60.2804 37.4318 61.2336 38.385 62.4094 38.385C63.5852 38.385 64.5384 37.4318 64.5384 36.256C64.5384 35.0802 63.5852 34.127 62.4094 34.127ZM58.1515 36.256C58.1515 33.9044 60.0578 31.998 62.4094 31.998C64.761 31.998 66.6674 33.9044 66.6674 36.256C66.6674 37.5658 66.076 38.7375 65.1456 39.5185C67.6371 40.6724 69.3285 43.3518 69.3285 46.3686C69.3285 46.9565 68.852 47.4331 68.2641 47.4331H56.5547C55.9669 47.4331 55.4903 46.9565 55.4903 46.3686C55.4903 43.3518 57.1817 40.6724 59.6732 39.5185C58.7428 38.7375 58.1515 37.5658 58.1515 36.256ZM62.4094 41.0461C64.6598 41.0461 66.655 42.8184 67.105 45.3041H57.7139C58.1638 42.8184 60.159 41.0461 62.4094 41.0461ZM62.4094 53.0216C61.2336 53.0216 60.2804 53.9748 60.2804 55.1506C60.2804 56.3264 61.2336 57.2796 62.4094 57.2796C63.5852 57.2796 64.5384 56.3264 64.5384 55.1506C64.5384 53.9748 63.5852 53.0216 62.4094 53.0216ZM58.1515 55.1506C58.1515 52.799 60.0578 50.8926 62.4094 50.8926C64.761 50.8926 66.6674 52.799 66.6674 55.1506C66.6674 56.4604 66.076 57.6321 65.1456 58.4132C67.6371 59.5669 69.3285 62.2464 69.3285 65.2632C69.3285 65.8511 68.852 66.3277 68.2641 66.3277H56.5547C55.9669 66.3277 55.4903 65.8511 55.4903 65.2632C55.4903 62.2464 57.1817 59.5669 59.6732 58.4132C58.7428 57.6321 58.1515 56.4604 58.1515 55.1506ZM62.4094 59.9407C64.6598 59.9407 66.655 61.713 67.105 64.1987H57.7139C58.1638 61.713 60.159 59.9407 62.4094 59.9407ZM44.8454 53.0216C43.6696 53.0216 42.7164 53.9748 42.7164 55.1506C42.7164 56.3264 43.6696 57.2796 44.8454 57.2796C46.0212 57.2796 46.9744 56.3264 46.9744 55.1506C46.9744 53.9748 46.0212 53.0216 44.8454 53.0216ZM40.5874 55.1506C40.5874 52.799 42.4938 50.8926 44.8454 50.8926C47.197 50.8926 49.1033 52.799 49.1033 55.1506C49.1033 56.4604 48.512 57.6321 47.5816 58.4132C50.0732 59.5669 51.7646 62.2464 51.7646 65.2632C51.7646 65.8511 51.2879 66.3277 50.7001 66.3277H38.9907C38.4028 66.3277 37.9263 65.8511 37.9263 65.2632C37.9263 62.2464 39.6177 59.5669 42.1092 58.4132C41.1789 57.6321 40.5874 56.4604 40.5874 55.1506ZM44.8454 59.9407C47.0958 59.9407 49.091 61.713 49.541 64.1987H40.1498C40.5998 61.713 42.595 59.9407 44.8454 59.9407Z" fill="#37B7C4"/>
</g>
<defs>
<clipPath id="clip0_260_2736">
<rect width="100" height="90" fill="white"/>
</clipPath>
</defs>
</svg>
